<?xml version="1.0" encoding="utf-8"?>
<svg  id="master-artboard" viewBox="0 0 1400 980" xmlns="http://www.w3.org/2000/svg" width="1400px" height="980px" version="1.1"

 style="shape-rendering:geometricPrecision; text-rendering:geometricPrecision; image-rendering:optimizeQuality; fill-rule:evenodd; clip-rule:evenodd">
<g transform="matrix(16.896551724137932, 0, 0, 16.896551724137932, 269.1379514214122, -0.000002912418551659357)"><g id="Page-1" fill="none" fill-rule="evenodd"><g id="010---Directional-Traffic-Arrow" fill="rgb(0,0,0)" fill-rule="nonzero" transform="translate(0 -1)">


<path id="Shape" d="m25.9969 20h6v33c0 .5522847.4477153 1 1 1h10c.5522847 0 1-.4477153 1-1v-33h6c.3708398.002689.7118642-.2028062.8827573-.5319337s.1427857-.7262873-.0727573-1.0280663l-11.97-17.03c-.1884296-.25921249-.4895366-.41258597-.81-.41258597s-.6215704.15337348-.81.41258597l-3.12 4.42-6.93 9.81-1.98 2.8c-.215543.301779-.2436504.6989388-.0727573 1.0280663s.5119175.5346227.8827573.5319337z" 
style="fill: #7827b066;"/><path id="Shape" d="m2.1731 44.3575 6.93 9.81 3.12 4.42c.1884555.2591733.4895531.4125159.81.4125159s.6215445-.1533426.81-.4125159l11.97-17.03c.215543-.301779.2436504-.6989388.0727573-1.0280663s-.5119175-.5346227-.8827573-.5319337h-6v-32.9975c0-.55228475-.4477153-1-1-1h-10c-.55228475 0-1 .44771525-1 1v32.9975h-6c-.37083976-.002689-.71186417.2028062-.88275728.5319337-.17089312.3291275-.14278572.7262873.07275728 1.0280663z" 

style="fill:#7827b066;"/></g></g></g></svg>